<svg width="15" height="16" viewBox="0 0 15 16" fill="none" xmlns="http://www.w3.org/2000/svg">
<path d="M6.0001 0.277333C6.09772 0.395951 6.15752 0.541116 6.17178 0.694073C6.18604 0.84703 6.15411 1.00075 6.0801 1.13537C5.50195 2.19689 5.20002 3.38676 5.20209 4.59551C5.20209 8.61668 8.48015 11.8728 12.5202 11.8728C13.0472 11.8728 13.5602 11.8178 14.0532 11.7128C14.2044 11.6801 14.3618 11.6926 14.5058 11.7488C14.6499 11.805 14.7742 11.9024 14.8633 12.0288C14.9572 12.1603 15.0052 12.3191 14.9996 12.4806C14.994 12.6421 14.9351 12.7972 14.8323 12.9219C14.0479 13.8853 13.0585 14.6616 11.936 15.1941C10.8136 15.7267 9.58648 16.002 8.34414 16C3.73406 16 0 12.2858 0 7.70964C0 4.2655 2.11404 1.31138 5.12409 0.0593244C5.27403 -0.00404638 5.44048 -0.0170529 5.59845 0.0222585C5.75641 0.06157 5.89735 0.151077 6.0001 0.277333ZM4.85808 1.31038C3.70067 1.93123 2.73308 2.85408 2.05817 3.98085C1.38325 5.10762 1.02622 6.3962 1.02502 7.70964C1.02502 11.7298 4.30407 14.9859 8.34414 14.9859C9.3116 14.9876 10.2698 14.7974 11.1632 14.4263C12.0567 14.0552 12.8677 13.5105 13.5492 12.8239C13.2122 12.8659 12.8692 12.8869 12.5202 12.8869C7.91014 12.8869 4.17707 9.1727 4.17707 4.59651C4.17707 3.42947 4.41908 2.31842 4.85808 1.31038Z" fill="white"/>
</svg>
